# xmcd
#
# Track frame offsets:
#	150
#	17227
#	31690
#	46695
#	60037
#	74220
#	89904
#	107554
#	123175
#	137514
#	153925
#	169177
#	187512
#	201069
#	212498
#	227318
#
# Disc length: 3230 seconds
#
# Revision: 1
# Processed by: cddbd v1.5.2PL0 Copyright (c) Steve Scherf et al.
# Submitted via: audiograbber 1.83.01
#
DISCID=c20c9c10
DTITLE=Kelsea Ballerini - Unapologetically (Deluxe Edition)
DYEAR=2018
DGENRE=Country
TTITLE0=Graveyard
TTITLE1=Miss Me More
TTITLE2=Get Over Yourself
TTITLE3=Roses
TTITLE4=Machine Heart
TTITLE5=In Between
TTITLE6=High School
TTITLE7=End of the World
TTITLE8=I Hate Love Songs
TTITLE9=Unapologetically
TTITLE10=Music
TTITLE11=Legends
TTITLE12=Fun and Games
TTITLE13=I Think I Fell In Love Today
TTITLE14=Landslide (Live from Nashville)
TTITLE15=This Feeling (The Chainsmokers feat. Kelsea Ballerini)
EXTD=
EXTT0=
EXTT1=
EXTT2=
EXTT3=
EXTT4=
EXTT5=
EXTT6=
EXTT7=
EXTT8=
EXTT9=
EXTT10=
EXTT11=
EXTT12=
EXTT13=
EXTT14=
EXTT15=
PLAYORDER=
